<?xml version="1.0" standalone="no"?>
<!DOCTYPE svg PUBLIC "-//W3C//DTD SVG 20010904//EN"
 "http://www.w3.org/TR/2001/REC-SVG-20010904/DTD/svg10.dtd">
<svg version="1.0" xmlns="http://www.w3.org/2000/svg"
 width="322.000000pt" height="322.000000pt" viewBox="0 0 322.000000 322.000000"
 preserveAspectRatio="xMidYMid meet">

<g transform="translate(0.000000,322.000000) scale(0.100000,-0.100000)"
fill="#000000" stroke="none">
<path d="M1380 3050 c-573 -104 -1015 -514 -1162 -1078 -27 -102 -31 -139 -35
-294 -7 -246 17 -399 94 -592 191 -482 612 -818 1123 -901 196 -31 468 -12
654 45 626 195 1052 791 1023 1436 -22 483 -254 900 -650 1165 -152 101 -310
168 -500 210 -137 31 -406 35 -547 9z m1135 -747 c0 -17 -772 -745 -817 -770
-85 -47 -144 -27 -267 90 -343 327 -700 680 -695 688 8 14 1779 7 1779 -8z
m-1532 -358 l261 -253 -205 -244 c-112 -134 -240 -287 -284 -340 -44 -53 -83
-97 -87 -97 -5 -1 -8 278 -8 620 l0 621 32 -27 c17 -14 148 -140 291 -280z
m1617 -321 c0 -431 -3 -615 -11 -612 -15 5 -580 680 -577 690 6 17 573 546
580 542 5 -3 8 -282 8 -620z m-357 -330 c159 -190 291 -352 294 -360 4 -12
-119 -14 -905 -14 -501 0 -913 3 -915 8 -4 5 534 656 578 700 3 3 45 -32 94
-77 105 -95 142 -114 231 -115 85 -1 129 23 239 125 46 44 87 79 90 79 3 -1
136 -156 294 -346z"/>
</g>
</svg>
