<?xml version="1.0" standalone="no"?>
<!DOCTYPE svg PUBLIC "-//W3C//DTD SVG 20010904//EN"
 "http://www.w3.org/TR/2001/REC-SVG-20010904/DTD/svg10.dtd">
<svg version="1.0" xmlns="http://www.w3.org/2000/svg"
 width="312.000000pt" height="312.000000pt" viewBox="0 0 312.000000 312.000000"
 preserveAspectRatio="xMidYMid meet">

<g transform="translate(0.000000,312.000000) scale(0.100000,-0.100000)"
fill="#000000" stroke="none">
<path d="M1310 2984 c-199 -36 -400 -119 -572 -235 -112 -76 -292 -254 -364
-359 -116 -168 -191 -343 -236 -547 -32 -142 -31 -422 1 -573 64 -301 187
-528 400 -741 286 -285 618 -422 1021 -422 235 0 424 42 634 143 186 88 407
270 527 432 191 257 289 552 289 870 0 376 -140 729 -395 997 -227 238 -494
382 -804 435 -116 20 -393 20 -501 0z m339 -350 c38 -11 67 -29 101 -63 128
-128 99 -338 -59 -425 -201 -109 -437 65 -391 288 33 162 185 249 349 200z
m-7 -634 c53 -15 119 -68 148 -120 l25 -45 -1 -595 c-1 -581 -1 -596 -22 -635
-56 -110 -169 -162 -294 -136 -74 16 -129 57 -159 117 l-23 48 -2 566 c-1 311
2 588 7 615 10 54 48 116 90 147 58 44 154 59 231 38z"/>
</g>
</svg>
