<?xml version="1.0" standalone="no"?>
<!DOCTYPE svg PUBLIC "-//W3C//DTD SVG 20010904//EN"
 "http://www.w3.org/TR/2001/REC-SVG-20010904/DTD/svg10.dtd">
<svg version="1.0" xmlns="http://www.w3.org/2000/svg"
 width="320.000000pt" height="319.000000pt" viewBox="0 0 320.000000 319.000000"
 preserveAspectRatio="xMidYMid meet">

<g transform="translate(0.000000,319.000000) scale(0.100000,-0.100000)"
fill="#000000" stroke="none">
<path d="M1465 3034 c-214 -24 -421 -90 -605 -194 -114 -65 -179 -115 -279
-213 -217 -214 -348 -454 -412 -757 -18 -85 -22 -138 -22 -280 -1 -195 17
-305 75 -475 146 -426 496 -766 931 -904 251 -80 534 -87 801 -21 589 147
1030 673 1075 1285 33 441 -122 852 -436 1156 -202 196 -440 320 -731 379
-101 20 -312 33 -397 24z m-240 -513 c22 -10 54 -34 71 -52 37 -40 669 -1016
695 -1074 34 -74 22 -145 -34 -203 -48 -51 -97 -72 -165 -72 -52 0 -63 4 -99
35 -44 38 -473 691 -481 733 -6 30 14 52 48 52 26 0 45 -27 246 -337 119 -186
229 -350 243 -365 31 -34 71 -36 114 -6 42 29 47 37 47 79 0 30 -33 87 -196
340 -417 645 -487 749 -517 771 -47 34 -131 32 -185 -5 -62 -41 -97 -99 -97
-162 0 -50 6 -60 440 -730 242 -374 458 -699 479 -723 46 -51 92 -72 152 -72
98 0 230 83 273 173 26 54 27 128 2 182 -10 23 -172 278 -360 568 -187 289
-341 530 -341 535 0 5 11 19 25 32 19 18 29 21 45 14 26 -12 696 -1041 728
-1118 31 -76 28 -176 -8 -246 -37 -73 -129 -156 -217 -197 -67 -31 -88 -36
-153 -36 -90 0 -150 24 -213 88 -51 51 -928 1403 -947 1459 -40 122 62 293
205 344 50 17 155 14 200 -7z"/>
</g>
</svg>
