<?xml version="1.0" standalone="no"?>
<!DOCTYPE svg PUBLIC "-//W3C//DTD SVG 20010904//EN"
 "http://www.w3.org/TR/2001/REC-SVG-20010904/DTD/svg10.dtd">
<svg version="1.0" xmlns="http://www.w3.org/2000/svg"
 width="309.000000pt" height="313.000000pt" viewBox="0 0 309.000000 313.000000"
 preserveAspectRatio="xMidYMid meet">

<g transform="translate(0.000000,313.000000) scale(0.100000,-0.100000)"
fill="#000000" stroke="none">
<path d="M1380 3053 c-341 -54 -610 -186 -838 -411 -440 -436 -553 -1118 -276
-1672 191 -384 542 -664 958 -765 730 -178 1477 237 1715 951 48 146 62 228
68 406 7 223 -12 351 -83 550 -172 486 -622 856 -1134 933 -91 14 -344 19
-410 8z m289 -500 c67 -42 940 -817 951 -844 33 -79 -58 -164 -134 -126 -17 9
-220 183 -451 387 -428 377 -449 393 -503 373 -13 -5 -212 -175 -443 -378
-231 -204 -433 -376 -449 -384 -85 -42 -174 68 -118 147 37 52 936 831 971
842 46 14 142 5 176 -17z m313 -720 c216 -190 396 -352 401 -359 4 -7 6 -199
5 -426 l-3 -413 -295 0 -295 0 -5 285 c-7 371 1 360 -225 360 -226 0 -218 11
-225 -360 l-5 -285 -295 0 -295 0 -3 413 c-1 227 1 419 5 426 5 7 185 169 401
359 288 254 399 347 417 347 18 0 130 -93 417 -347z"/>
</g>
</svg>
