<?xml version="1.0" standalone="no"?>
<!DOCTYPE svg PUBLIC "-//W3C//DTD SVG 20010904//EN"
 "http://www.w3.org/TR/2001/REC-SVG-20010904/DTD/svg10.dtd">
<svg version="1.0" xmlns="http://www.w3.org/2000/svg"
 width="317.000000pt" height="317.000000pt" viewBox="0 0 317.000000 317.000000"
 preserveAspectRatio="xMidYMid meet">

<g transform="translate(0.000000,317.000000) scale(0.100000,-0.100000)"
fill="#000000" stroke="none">
<path d="M1405 2971 c-98 -12 -243 -51 -345 -93 -442 -179 -751 -557 -846
-1033 -27 -136 -25 -396 5 -535 55 -257 175 -488 352 -674 267 -283 626 -435
1026 -436 575 -1 1114 390 1297 941 59 176 71 253 70 449 0 195 -18 304 -75
467 -161 456 -553 795 -1039 898 -85 18 -352 28 -445 16z m353 -361 c33 -15
47 -29 62 -64 l20 -44 -45 -598 c-25 -330 -47 -614 -50 -632 -8 -44 -70 -107
-123 -122 -82 -25 -177 30 -201 115 -6 22 -31 310 -55 640 -45 598 -45 600
-26 643 30 67 72 82 240 82 112 0 142 -4 178 -20z m-114 -1631 c21 -6 58 -29
82 -51 85 -78 95 -204 23 -291 -78 -95 -227 -106 -317 -23 -88 79 -90 225 -4
309 62 60 134 79 216 56z"/>
</g>
</svg>
