<svg version="1.1" id="Layer_1" xmlns="http://www.w3.org/2000/svg" xmlns:xlink="http://www.w3.org/1999/xlink" x="0px" y="0px"
	 width="100%" viewBox="0 0 304 304" enable-background="new 0 0 304 304" xml:space="preserve">
<path fill="#000000" opacity="1.000000" stroke="none" 
	d="
M295.839600,181.562317 
	C284.134338,239.137589 239.285889,284.398834 181.588089,295.734192 
	C97.315689,312.290405 22.946150,256.945404 8.909288,177.994095 
	C-4.811883,100.818375 44.574883,27.172403 120.726707,10.217130 
	C201.415939,-7.748401 281.529510,45.126053 296.094055,126.096855 
	C299.388062,144.409851 299.535278,162.810928 295.839600,181.562317 
M194.732498,58.731087 
	C223.302917,83.452538 224.295609,127.518921 197.081284,153.619766 
	C195.108047,155.512268 193.018799,157.283783 190.548233,159.502441 
	C206.319687,166.140457 219.089752,175.752701 229.772659,188.220734 
	C240.414032,200.640289 246.739243,215.256897 251.182861,231.247223 
	C288.821503,187.904236 292.352264,110.797607 239.156952,60.226757 
	C186.685135,10.343737 100.523018,16.173885 54.582714,72.405533 
	C9.435089,127.666924 24.450788,199.873306 54.323650,230.912659 
	C62.631271,197.321091 82.980293,173.775833 114.669662,159.351654 
	C112.891449,157.806396 111.750404,156.870743 110.671089,155.868591 
	C91.894791,138.434845 84.393883,116.948303 90.417770,92.107925 
	C101.801216,45.166618 155.845901,27.817266 194.732498,58.731087 
M215.695602,201.807312 
	C195.279999,178.167419 169.676453,167.536331 138.683777,172.896698 
	C102.764603,179.109177 77.732780,206.159851 71.965599,242.682526 
	C71.079933,248.291306 72.676819,251.130646 76.927841,254.225143 
	C103.325150,273.440765 132.515152,282.036713 165.186874,278.820709 
	C189.583588,276.419281 211.161301,267.351654 230.593063,252.687134 
	C233.154877,250.753769 233.903610,248.425873 233.516083,245.299667 
	C231.547989,229.423431 226.184158,214.955276 215.695602,201.807312 
M193.453079,125.903503 
	C197.213867,117.311447 198.397003,108.548203 196.782227,99.137939 
	C192.554596,74.501091 168.258392,58.296448 142.674835,63.468376 
	C119.325020,68.188736 103.306648,93.432571 108.879517,116.727470 
	C113.331123,135.335419 128.423294,149.645386 145.688202,151.628403 
	C166.674667,154.038879 183.490662,145.153000 193.453079,125.903503 
z"/>
</svg>