<?xml version="1.0" standalone="no"?>
<!DOCTYPE svg PUBLIC "-//W3C//DTD SVG 20010904//EN"
 "http://www.w3.org/TR/2001/REC-SVG-20010904/DTD/svg10.dtd">
<svg version="1.0" xmlns="http://www.w3.org/2000/svg"
 width="1080.000000pt" height="319.000000pt" viewBox="0 0 1080.000000 319.000000"
 preserveAspectRatio="xMidYMid meet">

<g transform="translate(0.000000,319.000000) scale(0.100000,-0.100000)"
fill="#000000" stroke="none">
<path d="M490 1922 c0 -363 4 -631 10 -662 40 -209 218 -357 502 -418 115 -24
140 -26 393 -26 286 0 389 11 540 56 172 51 300 148 360 272 49 103 57 192 51
613 -3 191 -5 443 -5 560 l-1 212 -62 -5 c-129 -11 -263 -55 -325 -108 l-32
-27 -1 -492 c0 -271 -5 -508 -9 -527 -30 -122 -94 -181 -233 -215 -132 -33
-449 -30 -570 5 -68 20 -131 70 -161 130 l-27 55 -6 525 c-5 430 -9 528 -20
541 -39 44 -205 100 -336 113 l-68 7 0 -609z"/>
<path d="M2458 2514 c6 -10 265 -397 574 -859 l563 -840 152 -3 153 -3 279
418 c154 230 364 544 468 698 103 154 237 354 297 444 l108 164 -148 -6 c-152
-7 -275 -29 -350 -64 -104 -47 -104 -47 -460 -582 -186 -280 -342 -510 -345
-510 -6 -1 -63 84 -425 629 -126 190 -249 365 -274 390 -81 82 -234 127 -468
137 -130 6 -134 6 -124 -13z"/>
<path d="M5160 1671 l0 -861 210 0 210 0 0 530 c0 292 4 530 8 530 5 0 19 -12
32 -27 19 -23 126 -145 165 -189 5 -6 118 -136 250 -287 132 -152 245 -275
251 -274 6 1 112 117 235 258 376 429 452 514 461 517 4 2 8 -235 8 -527 l0
-531 215 0 216 0 -1 860 -1 860 -22 0 c-63 0 -201 -24 -269 -46 -122 -40 -92
-12 -578 -544 -58 -63 -124 -135 -146 -160 -23 -25 -56 -62 -74 -82 -18 -21
-37 -38 -44 -38 -6 0 -54 48 -106 107 -52 58 -135 150 -184 202 -49 53 -110
119 -136 146 -25 28 -95 103 -153 169 -59 65 -117 126 -130 136 -67 52 -200
94 -334 105 l-83 7 0 -861z"/>
<path d="M8925 2466 c-71 -31 -94 -105 -53 -166 66 -98 218 -52 218 65 0 35
-6 49 -29 73 -17 16 -44 32 -62 36 -40 8 -38 8 -74 -8z"/>
<path d="M10183 2473 c-13 -2 -36 -18 -53 -34 -24 -25 -30 -39 -30 -76 0 -38
5 -50 34 -79 33 -33 51 -39 106 -34 59 4 106 67 96 128 -6 42 -30 70 -73 88
-33 14 -40 15 -80 7z"/>
<path d="M9230 1910 l0 -560 105 0 105 0 0 108 c0 107 0 108 30 137 l31 29
137 -137 137 -137 135 0 135 0 -198 198 c-108 108 -197 202 -196 207 0 6 81
84 180 175 l180 165 -127 3 -126 3 -135 -128 c-74 -70 -146 -136 -159 -146
l-24 -19 0 331 0 331 -105 0 -105 0 0 -560z"/>
<path d="M7680 2096 c0 -12 393 -746 400 -746 4 0 42 74 85 165 43 91 81 165
85 165 4 0 44 -78 90 -172 l83 -173 16 35 c9 19 91 190 183 380 l168 345 -97
3 c-53 1 -100 -1 -104 -5 -4 -4 -40 -83 -80 -175 -40 -93 -75 -168 -78 -168
-4 0 -44 79 -90 175 l-84 175 -98 0 -98 0 25 -56 c13 -30 36 -77 49 -105 l25
-49 -38 -75 -37 -75 -90 180 -90 180 -112 0 c-62 0 -113 -2 -113 -4z"/>
<path d="M8870 1725 l0 -375 105 0 105 0 0 375 0 375 -105 0 -105 0 0 -375z"/>
<path d="M10110 1725 l0 -375 105 0 105 0 0 375 0 375 -105 0 -105 0 0 -375z"/>
<path d="M480 435 l0 -25 3470 0 3470 0 0 25 0 25 -3470 0 -3470 0 0 -25z"/>
</g>
</svg>
